<?xml version="1.0" standalone="no"?>
<!DOCTYPE svg PUBLIC "-//W3C//DTD SVG 20010904//EN"
 "http://www.w3.org/TR/2001/REC-SVG-20010904/DTD/svg10.dtd">
<svg version="1.0" xmlns="http://www.w3.org/2000/svg"
 width="900.000000pt" height="542.000000pt" viewBox="0 0 900.000000 542.000000"
 preserveAspectRatio="xMidYMid meet">

<g transform="translate(0.000000,542.000000) scale(0.100000,-0.100000)"
fill="#000000" stroke="none">
<path d="M260 5183 c-54 -37 -71 -88 -47 -146 31 -72 -101 -67 1663 -67 l1586
0 34 34 c28 28 34 41 34 78 0 24 -7 54 -16 66 -38 55 60 52 -1651 52 -1471 0
-1580 -1 -1603 -17z"/>
<path d="M5630 4335 c0 -102 -4 -185 -9 -185 -5 0 -15 7 -22 17 -18 21 -83 49
-136 58 -55 9 -156 -17 -208 -53 -58 -40 -110 -116 -136 -194 -18 -58 -21 -84
-17 -176 5 -127 31 -196 97 -260 52 -50 114 -72 205 -72 84 0 143 23 197 76
l37 36 12 -51 12 -51 94 0 94 0 0 520 0 520 -110 0 -110 0 0 -185z m-97 -289
c18 -7 47 -30 65 -50 l32 -37 0 -119 0 -119 -35 -35 c-80 -80 -185 -64 -236
35 -58 115 -19 284 76 325 39 17 58 17 98 0z"/>
<path d="M2370 4503 c-208 -27 -363 -126 -435 -278 -41 -87 -55 -152 -55 -258
1 -261 135 -435 375 -488 80 -17 282 -15 373 5 41 8 98 26 128 40 l54 25 0
255 0 256 -195 0 -195 0 0 -95 0 -95 75 0 75 0 0 -94 c0 -111 3 -109 -125
-109 -104 0 -169 27 -230 95 -58 64 -79 129 -79 238 0 72 5 93 27 136 70 136
218 190 411 149 38 -8 98 -28 134 -45 35 -16 66 -30 68 -30 2 0 4 51 4 114 l0
115 -56 20 c-30 12 -74 25 -97 31 -52 11 -210 20 -257 13z"/>
<path d="M3316 4215 c-44 -16 -94 -49 -114 -77 -20 -28 -29 -22 -36 27 l-7 45
-110 0 c-60 0 -109 -3 -109 -7 0 -5 7 -48 15 -98 11 -63 15 -169 15 -357 l0
-268 110 0 110 0 0 245 0 244 48 28 c40 24 58 28 120 28 l72 0 0 103 0 102
-37 0 c-21 -1 -56 -7 -77 -15z"/>
<path d="M3703 4220 c-54 -10 -149 -45 -170 -62 -9 -7 -13 -41 -13 -104 0 -52
2 -94 4 -94 2 0 28 11 58 25 29 13 86 29 125 35 115 16 173 -3 199 -65 25 -61
25 -60 -98 -57 -97 3 -121 1 -171 -18 -108 -41 -156 -106 -157 -213 0 -72 17
-113 63 -154 91 -80 285 -58 359 41 l23 31 5 -50 5 -50 114 -3 113 -3 -7 28
c-4 15 -10 143 -14 283 -6 238 -8 258 -29 302 -26 53 -72 92 -134 114 -52 19
-204 26 -275 14z m195 -456 c19 -5 22 -13 22 -54 0 -46 -1 -48 -40 -64 -57
-23 -125 -21 -150 4 -36 36 -21 94 30 113 21 8 110 8 138 1z"/>
<path d="M4663 4221 c-44 -11 -119 -57 -138 -84 -13 -19 -17 -20 -25 -7 -5 8
-10 23 -10 32 0 45 -7 48 -121 48 l-108 0 4 -27 c3 -16 9 -55 15 -87 5 -33 10
-185 10 -338 l0 -278 110 0 110 0 0 244 0 244 35 30 c64 57 158 51 196 -12 17
-28 19 -52 19 -268 l0 -238 110 0 110 0 0 290 c0 311 -3 335 -53 388 -51 55
-178 85 -264 63z"/>
<path d="M8188 3684 c-33 -17 -58 -62 -58 -101 0 -38 34 -91 66 -103 14 -6
151 -10 316 -10 l290 0 34 34 c28 28 34 41 34 78 0 50 -18 82 -60 103 -42 22
-582 21 -622 -1z"/>
<path d="M3470 3135 l0 -105 115 0 115 0 0 105 0 105 -115 0 -115 0 0 -105z"/>
<path d="M1205 2700 l0 -500 123 0 122 0 0 145 0 145 74 0 c194 0 336 70 406
202 28 53 35 76 38 144 8 144 -40 246 -140 303 -87 50 -160 61 -405 61 l-218
0 0 -500z m433 278 c65 -32 85 -64 85 -133 0 -40 -6 -64 -20 -83 -29 -41 -98
-71 -180 -78 l-73 -7 0 168 0 168 71 -6 c44 -4 89 -15 117 -29z"/>
<path d="M2223 2920 c-39 -10 -85 -26 -102 -34 -30 -16 -30 -16 -33 -116 -2
-55 -2 -100 0 -100 1 0 21 9 42 20 100 51 255 63 308 23 24 -18 55 -88 46
-104 -1 -3 -34 -1 -72 4 -143 19 -286 -30 -337 -116 -47 -82 -42 -183 12 -248
82 -97 290 -92 375 10 26 30 39 39 37 24 -1 -5 -1 -25 0 -45 l1 -38 109 0 109
0 -4 188 c-8 346 -9 356 -39 417 -31 65 -76 99 -156 121 -75 19 -209 17 -296
-6z m251 -446 c11 -4 16 -19 16 -50 0 -39 -3 -45 -32 -61 -20 -10 -57 -17 -91
-17 -50 -1 -62 3 -78 23 -26 31 -24 57 6 86 21 22 33 25 94 25 38 0 76 -3 85
-6z"/>
<path d="M3205 2916 c-28 -13 -63 -37 -77 -55 -15 -17 -29 -31 -31 -31 -3 0
-8 20 -11 45 l-7 45 -110 0 c-81 0 -109 -3 -109 -12 0 -7 7 -53 15 -103 10
-63 15 -168 15 -347 l0 -258 110 0 110 0 0 239 0 240 26 20 c38 30 92 44 157
40 l57 -4 0 103 0 102 -47 0 c-29 0 -68 -9 -98 -24z"/>
<path d="M4060 2924 c-135 -36 -217 -135 -208 -252 6 -83 34 -124 111 -162 37
-18 99 -37 152 -46 125 -21 160 -48 118 -89 -26 -27 -204 -16 -302 19 -41 14
-76 26 -78 26 -2 0 -2 -41 -1 -92 l3 -92 54 -18 c182 -63 390 -36 490 63 45
45 61 86 61 156 0 114 -62 172 -211 199 -114 21 -167 41 -175 66 -22 70 151
83 298 24 l58 -24 0 93 c0 107 4 103 -125 130 -88 18 -174 18 -245 -1z"/>
<path d="M3475 2560 l0 -360 113 0 112 0 0 360 0 360 -112 0 -113 0 0 -360z"/>
<path d="M6124 2626 c-28 -28 -34 -41 -34 -78 0 -24 7 -54 16 -66 37 -53 17
-52 784 -52 780 0 753 -2 785 60 26 50 20 97 -19 136 l-34 34 -732 0 -732 0
-34 -34z"/>
<path d="M275 1956 c-68 -30 -93 -104 -55 -164 31 -50 71 -62 205 -62 128 0
169 11 203 55 45 57 18 141 -54 171 -44 19 -257 18 -299 0z"/>
<path d="M4929 1769 c-55 -8 -96 -29 -144 -70 l-34 -30 -12 45 -11 46 -109 0
-108 0 4 -27 c3 -16 9 -55 15 -87 5 -33 10 -185 10 -338 l0 -278 110 0 110 0
0 238 c0 264 -3 250 69 287 23 11 57 17 105 17 l71 -1 0 99 c0 111 1 111 -76
99z"/>
<path d="M2243 1756 c-56 -18 -105 -50 -142 -92 -129 -146 -133 -417 -9 -543
74 -74 150 -101 290 -101 104 0 173 13 251 47 l57 26 0 87 0 88 -58 -24 c-114
-46 -243 -53 -320 -17 -33 16 -82 76 -82 100 0 10 53 13 241 13 l242 0 -6 88
c-8 121 -36 194 -101 257 -64 64 -126 85 -240 84 -44 0 -100 -6 -123 -13z
m195 -171 c16 -14 33 -37 36 -52 4 -16 9 -36 12 -45 5 -17 -6 -18 -125 -18
-146 0 -146 0 -114 67 34 72 133 97 191 48z"/>
<path d="M4002 1758 c-18 -6 -53 -29 -78 -51 -25 -22 -46 -38 -48 -36 -2 2 -7
22 -13 44 l-9 40 -107 3 c-124 3 -115 15 -92 -123 11 -69 15 -185 15 -497 l0
-408 110 0 110 0 0 180 c0 99 3 180 6 180 3 0 20 -11 38 -25 70 -53 194 -66
288 -28 94 38 171 169 185 315 16 174 -50 324 -171 385 -58 30 -177 40 -234
21z m89 -175 c47 -28 79 -104 79 -187 -1 -108 -40 -185 -107 -207 -47 -15 -97
-4 -138 33 l-35 30 0 137 c1 146 4 157 57 193 36 23 106 23 144 1z"/>
<path d="M5296 1745 c-139 -57 -216 -187 -216 -366 0 -159 56 -261 178 -321
65 -32 69 -33 202 -33 114 0 145 3 200 23 108 37 110 39 110 136 l0 84 -59
-24 c-125 -51 -283 -52 -346 -3 -25 20 -55 68 -55 89 0 7 79 10 240 10 l240 0
0 48 c-1 129 -54 262 -129 319 -87 67 -253 84 -365 38z m198 -145 c31 -12 55
-47 63 -94 l6 -36 -132 0 -132 0 7 23 c17 55 49 97 84 110 25 9 77 8 104 -3z"/>
<path d="M6119 1754 c-156 -48 -238 -193 -180 -320 34 -74 102 -111 256 -138
46 -8 93 -20 105 -26 28 -15 25 -46 -5 -66 -37 -24 -175 -14 -280 20 -44 14
-83 26 -87 26 -5 0 -8 -40 -8 -90 l0 -89 68 -22 c101 -33 260 -38 350 -10 73
22 150 79 176 130 40 77 26 173 -32 232 -41 40 -97 61 -208 79 -81 13 -137 42
-132 68 2 9 19 25 38 35 45 24 150 18 235 -13 105 -38 95 -44 95 57 0 87 -1
90 -26 102 -88 40 -276 53 -365 25z"/>
<path d="M6855 1756 c-81 -26 -150 -78 -180 -135 -33 -66 -26 -163 17 -224 29
-41 108 -76 219 -97 118 -23 139 -33 139 -66 0 -36 -38 -47 -140 -41 -54 3
-113 14 -163 31 -42 14 -80 26 -83 26 -2 0 -3 -41 -2 -92 l3 -92 60 -19 c36
-12 103 -21 167 -24 124 -6 214 15 285 67 62 45 98 124 90 196 -11 110 -75
161 -236 189 -132 23 -177 50 -148 89 39 51 204 44 317 -14 l40 -20 0 93 c0
92 -1 94 -26 106 -86 39 -277 53 -359 27z"/>
<path d="M2786 1748 c4 -7 63 -91 131 -186 68 -95 123 -177 123 -182 0 -5 -58
-80 -128 -167 -70 -87 -131 -164 -136 -170 -5 -10 19 -13 111 -13 l118 0 65
100 c36 55 68 100 72 100 4 0 37 -45 75 -100 l68 -100 134 0 c105 0 131 3 124
13 -5 6 -69 89 -141 184 -73 94 -132 175 -132 178 0 4 55 77 123 161 67 85
128 164 136 174 13 20 11 20 -101 20 l-115 0 -69 -105 c-38 -57 -71 -104 -74
-104 -3 0 -32 46 -66 102 l-60 102 -133 3 c-106 2 -131 0 -125 -10z"/>
<path d="M2036 390 c-61 -54 -53 -150 15 -185 25 -13 456 -15 3368 -13 l3341
3 26 26 c52 53 39 151 -26 184 -26 13 -402 15 -3359 15 l-3330 0 -35 -30z"/>
</g>
</svg>
