<svg fill="none" height="40" viewBox="0 0 150 40" width="150" xmlns="http://www.w3.org/2000/svg"><g fill="#000"><path d="m69.1338 16.1133c0 4.7029-3.7333 8.4909-8.5506 8.4909h-3.663v7.7788h-5.5851v-24.76065h9.2481c4.8173 0 8.5506 3.78535 8.5506 8.49095zm-5.5824 0c0-1.8023-1.257-3.18-2.9736-3.18h-3.6576v6.3627h3.663c1.7112-.0027 2.9682-1.3804 2.9682-3.1827z"/><path d="m125.865 7.62235v24.75245h-5.583v-24.75245z"/><path d="m101.813 24.6043v7.7678h-5.5824v-24.7497h9.7724c1.102-.00362 2.193.21353 3.211.63896 1.019.42543 1.944 1.05073 2.723 1.83994.779.7891 1.396 1.7266 1.816 2.7584s.634 2.1376.63 3.2536c0 3.0431-1.735 6.0259-4.433 7.3023l5.136 8.9647h-6.001l-4.412-7.776zm0-4.9522h4.19c1.536 0 2.79-1.4571 2.79-3.3635 0-1.9063-1.246-3.358-2.79-3.358h-4.19z"/><path clip-rule="evenodd" d="m76.5086 28.0253c2.8788.745 5.8962.745 8.775 0l1.3706 4.3523h6.1041l-8.3019-24.75525h-7.1206l-8.3046 24.75245h6.1041zm1.5003-4.7604c1.8945.4893 3.8799.4893 5.7743 0l-2.8871-9.1675z" fill-rule="evenodd"/><path d="m140.044 12.6463c2.433 0 3.431 1.3257 4.274 2.5555l4.661-2.4843c-.774-1.5503-3.055-5.58757-8.921-5.58757-4.131 0-8.202 2.66506-8.202 7.53227 0 5.8451 5.485 6.9188 7.191 7.5323 1.705.6135 5.057 1.0408 5.057 3.1471 0 1.4654-1.516 2.0187-3.489 2.0187-2.201 0-3.958-1.2216-5.021-3.128l-4.749 2.5227c.362 1.0298 3.122 6.1162 9.77 6.1162 5.222 0 9.075-2.7801 9.075-7.6008 0-3.8127-2.052-5.9163-6.934-7.3789-3.785-1.1394-5.315-1.7968-5.315-3.3717-.014-1.1723 1.1-1.8735 2.603-1.8735z"/><path d="m42.5654 23.739c-.1514 0-.2704.1452-.4488.5314-3.8982 8.6471-11.0836 12.7912-18.6908 12.8487-15.15214.1151-18.72323-12.5173-18.81785-12.8733l7.73425 1.4653c.0378.0849 2.998 6.979 10.8133 6.979 8.264 0 14.014-8.354 14.014-16.9819 0-7.77054-3.244-12.2187-7.9315-15.7082l-21.05355 9.87689c-.042.01916-.07697.05126-.09993.09172-.02297.04049-.03275.08719-.02795.13369.00479.0464.02391.0901.05463.1249.03073.0347.0715.0588.11651.0688 11.65949 2.739 13.63829 11.2299 13.08679 16.0396-.0811.7176.3839.5971.8326-.7505 1.5869-4.785.4461-11.7476-5.8743-15.66987l11.7-5.92996c1.4057 1.0956 6.0095 4.24821 6.0095 11.72573 0 7.4775-4.2631 14.2785-10.8295 14.2785-6.5232 0-8.794-6.7517-8.8291-6.8476l-13.911312-3.0704c-.051561-.0129-.10543-.0132-.157095-.0007s-.099624.0374-.13986.0725c-.0402358.0352-.0715779.0796-.0914035.1295-.01982557.0499-.02755724.1039-.02254697.1575 1.21108747 10.7534 9.70764747 19.5703 22.02131747 19.5703 10.2159 0 17.1526-5.6944 20.1073-13.7362.6813-1.8543.6515-2.5226.4353-2.5254z"/></g></svg>